<svg width="220" height="300" viewBox="0 0 220 300" fill="none" xmlns="http://www.w3.org/2000/svg">
<path fill-rule="evenodd" clip-rule="evenodd" d="M130.981 215.262H133.157C143.075 215.262 151.356 214.497 158 212.967C164.644 211.434 170.304 209.087 174.982 205.923C179.66 202.758 183.544 198.623 186.633 193.52C189.718 188.417 192.665 182.293 195.472 175.148L196.594 171.779C197.532 169.124 198.464 166.368 199.403 163.511C200.338 160.653 200.807 157.794 200.807 154.936C200.618 150.854 199.681 147.127 198 143.76C196.314 140.391 194.443 137.788 192.387 135.951C194.631 134.725 197.11 132.837 199.823 130.286C202.539 127.734 205.064 124.775 207.403 121.405C209.742 118.036 211.705 114.416 213.297 110.536C214.889 106.656 215.683 102.675 215.683 98.5934V97.9775C215.683 92.262 215.262 86.6479 214.42 81.1382C213.579 75.624 212.081 70.8256 209.93 66.7444C207.776 62.6617 204.875 59.3454 201.228 56.7926C197.579 54.2413 192.948 52.9649 187.335 52.9649H158.696L165.747 5.99284L118.721 133.964C118.591 134.254 118.517 134.579 118.517 134.923C118.517 136.13 119.414 137.108 120.516 137.108H175.403L58.9699 300L130.981 215.261V215.262ZM58.4916 52.9619L114.667 51.8048L161.289 0L53.7773 170.892L106.627 170.955C107.726 170.955 108.619 171.929 108.619 173.127C108.619 173.463 108.552 173.778 108.427 174.062L108.433 174.067L55.4285 295.239L79.5917 215.261H4.31738L58.4916 52.9619Z" fill="url(#paint0_linear_310_1143)"/>
<defs>
<linearGradient id="paint0_linear_310_1143" x1="4.31738" y1="150" x2="215.681" y2="150" gradientUnits="userSpaceOnUse">
<stop stop-color="#034693"/>
<stop offset="1" stop-color="#009FE3"/>
</linearGradient>
</defs>
</svg>
