<svg viewBox="0 0 20 29" fill="currentColor" xmlns="http://www.w3.org/2000/svg">
    <path fill-rule="evenodd" clip-rule="evenodd"
        d="M11.9854 20.8087H12.1913C13.1297 20.8087 13.9134 20.7347 14.542 20.5868C15.1707 20.4387 15.7063 20.2118 16.1489 19.9059C16.5916 19.5999 16.959 19.2002 17.2513 18.7069C17.5433 18.2137 17.8221 17.6217 18.0878 16.931L18.1939 16.6053C18.2827 16.3486 18.3709 16.0823 18.4597 15.8061C18.5482 15.5298 18.5926 15.2534 18.5926 14.9771C18.5747 14.5826 18.486 14.2222 18.3269 13.8968C18.1674 13.5711 17.9904 13.3195 17.7958 13.1419C18.0082 13.0234 18.2427 12.8409 18.4995 12.5943C18.7564 12.3477 18.9954 12.0615 19.2167 11.7358C19.4381 11.4102 19.6238 11.0602 19.7745 10.6851C19.9251 10.3101 20.0001 9.92521 20.0001 9.53069V9.47116C20.0001 8.91866 19.9603 8.37597 19.8807 7.84336C19.8011 7.31032 19.6593 6.84647 19.4558 6.45196C19.252 6.05729 18.9775 5.73672 18.6324 5.48995C18.2871 5.24332 17.8489 5.11994 17.3178 5.11994H14.6079L15.2751 0.579308L10.8253 12.9499C10.813 12.9779 10.806 13.0093 10.806 13.0426C10.806 13.1592 10.8909 13.2537 10.9951 13.2537H16.1887L5.17142 29L11.9854 20.8085V20.8087ZM5.12616 5.11965L10.4416 5.00779L14.8532 0L4.68008 16.5196L9.68094 16.5256C9.78491 16.5256 9.8694 16.6198 9.8694 16.7356C9.8694 16.7681 9.8631 16.7985 9.85121 16.826L9.85178 16.8265L4.83632 28.5398L7.12273 20.8085H0L5.12616 5.11965Z"
        fill="currentColor" />
</svg>